# xmcd CD database file
#
# Track frame offsets:
#	150
#	25862
#	50610
#	81300
#	108187
#	126530
#	151450
#	176542
#	197935
#	215192
#
# Disc length: 3213 seconds
#
# Revision: 11
# Processed by: cddbd v1.5.2PL0 Copyright (c) Steve Scherf et al.
# Submitted via: CDex 1.51
#
DISCID=920c8b0a
DTITLE=Various Artist - The Music Speaks - A Street Jazz Collection Vol.2 [CD 1)
DYEAR=1994
DGENRE=Jazz
TTITLE0=Wise Guys feat. Maysa Leak - Peace Of Mind
TTITLE1=Addie Shadow - Sway
TTITLE2=Pushmipullyu - In each and every heart
TTITLE3=Blachmann Thomas - Keep it simple
TTITLE4=Fanfan La Tulipe - Still as one?
TTITLE5=George Tandy - In the Rythm of the city
TTITLE6=Childhood Sweetheart - Perfect Lover
TTITLE7=Gamut of Crime - Taking you up
TTITLE8=Cultured Pearls - Sister take a stand
TTITLE9=J.R. and R. T. King - How many
EXTD=YEAR: 1994
EXTT0=
EXTT1=
EXTT2=
EXTT3=
EXTT4=
EXTT5=
EXTT6=
EXTT7=
EXTT8=
EXTT9=
PLAYORDER=
